<mxfile host="app.diagrams.net" modified="2023-11-18T07:04:33.267Z" agent="Mozilla/5.0 (Windows NT 10.0; Win64; x64) AppleWebKit/537.36 (KHTML, like Gecko) Chrome/119.0.0.0 Safari/537.36" etag="VcDhN10LUAEdeylS0pz8" version="22.1.3" type="device">
  <diagram id="R2lEEEUBdFMjLlhIrx00" name="Page-1">
    <mxGraphModel dx="1562" dy="822" grid="0" gridSize="10" guides="1" tooltips="1" connect="1" arrows="1" fold="1" page="1" pageScale="1" pageWidth="850" pageHeight="1100" math="0" shadow="0" extFonts="Permanent Marker^https://fonts.googleapis.com/css?family=Permanent+Marker">
      <root>
        <mxCell id="0" />
        <mxCell id="1" parent="0" />
        <mxCell id="5ztRzxqujjNMiUvxfKSf-1" value="bruker" style="swimlane;fontStyle=0;childLayout=stackLayout;horizontal=1;startSize=26;horizontalStack=0;resizeParent=1;resizeParentMax=0;resizeLast=0;collapsible=1;marginBottom=0;align=center;fontSize=14;" parent="1" vertex="1">
          <mxGeometry x="40" y="40" width="260" height="266" as="geometry" />
        </mxCell>
        <mxCell id="5ztRzxqujjNMiUvxfKSf-2" value="kort_id INT (PK)" style="text;strokeColor=none;fillColor=none;spacingLeft=4;spacingRight=4;overflow=hidden;rotatable=0;points=[[0,0.5],[1,0.5]];portConstraint=eastwest;fontSize=12;whiteSpace=wrap;html=1;" parent="5ztRzxqujjNMiUvxfKSf-1" vertex="1">
          <mxGeometry y="26" width="260" height="30" as="geometry" />
        </mxCell>
        <mxCell id="5ztRzxqujjNMiUvxfKSf-3" value="fornavn VARCHAR(50)" style="text;strokeColor=none;fillColor=none;spacingLeft=4;spacingRight=4;overflow=hidden;rotatable=0;points=[[0,0.5],[1,0.5]];portConstraint=eastwest;fontSize=12;whiteSpace=wrap;html=1;" parent="5ztRzxqujjNMiUvxfKSf-1" vertex="1">
          <mxGeometry y="56" width="260" height="30" as="geometry" />
        </mxCell>
        <mxCell id="qw_QOssrDmkwzQ05NECk-21" value="etternavn VARCHAR(50)" style="text;strokeColor=none;fillColor=none;spacingLeft=4;spacingRight=4;overflow=hidden;rotatable=0;points=[[0,0.5],[1,0.5]];portConstraint=eastwest;fontSize=12;whiteSpace=wrap;html=1;" vertex="1" parent="5ztRzxqujjNMiUvxfKSf-1">
          <mxGeometry y="86" width="260" height="30" as="geometry" />
        </mxCell>
        <mxCell id="qw_QOssrDmkwzQ05NECk-22" value="email VARCHAR(50)" style="text;strokeColor=none;fillColor=none;spacingLeft=4;spacingRight=4;overflow=hidden;rotatable=0;points=[[0,0.5],[1,0.5]];portConstraint=eastwest;fontSize=12;whiteSpace=wrap;html=1;" vertex="1" parent="5ztRzxqujjNMiUvxfKSf-1">
          <mxGeometry y="116" width="260" height="30" as="geometry" />
        </mxCell>
        <mxCell id="5ztRzxqujjNMiUvxfKSf-4" value="gyldighet_start TIMESTAMP" style="text;strokeColor=none;fillColor=none;spacingLeft=4;spacingRight=4;overflow=hidden;rotatable=0;points=[[0,0.5],[1,0.5]];portConstraint=eastwest;fontSize=12;whiteSpace=wrap;html=1;" parent="5ztRzxqujjNMiUvxfKSf-1" vertex="1">
          <mxGeometry y="146" width="260" height="30" as="geometry" />
        </mxCell>
        <mxCell id="qw_QOssrDmkwzQ05NECk-25" value="gyldighet_slutt TIMESTAMP" style="text;strokeColor=none;fillColor=none;spacingLeft=4;spacingRight=4;overflow=hidden;rotatable=0;points=[[0,0.5],[1,0.5]];portConstraint=eastwest;fontSize=12;whiteSpace=wrap;html=1;" vertex="1" parent="5ztRzxqujjNMiUvxfKSf-1">
          <mxGeometry y="176" width="260" height="30" as="geometry" />
        </mxCell>
        <mxCell id="qw_QOssrDmkwzQ05NECk-24" value="pin INT" style="text;strokeColor=none;fillColor=none;spacingLeft=4;spacingRight=4;overflow=hidden;rotatable=0;points=[[0,0.5],[1,0.5]];portConstraint=eastwest;fontSize=12;whiteSpace=wrap;html=1;" vertex="1" parent="5ztRzxqujjNMiUvxfKSf-1">
          <mxGeometry y="206" width="260" height="30" as="geometry" />
        </mxCell>
        <mxCell id="qw_QOssrDmkwzQ05NECk-23" value="tilgang_id INT" style="text;strokeColor=none;fillColor=none;spacingLeft=4;spacingRight=4;overflow=hidden;rotatable=0;points=[[0,0.5],[1,0.5]];portConstraint=eastwest;fontSize=12;whiteSpace=wrap;html=1;" vertex="1" parent="5ztRzxqujjNMiUvxfKSf-1">
          <mxGeometry y="236" width="260" height="30" as="geometry" />
        </mxCell>
        <mxCell id="qw_QOssrDmkwzQ05NECk-1" value="log" style="swimlane;fontStyle=0;childLayout=stackLayout;horizontal=1;startSize=26;horizontalStack=0;resizeParent=1;resizeParentMax=0;resizeLast=0;collapsible=1;marginBottom=0;align=center;fontSize=14;" vertex="1" parent="1">
          <mxGeometry x="390" y="20" width="160" height="146" as="geometry" />
        </mxCell>
        <mxCell id="qw_QOssrDmkwzQ05NECk-3" value="log_type INT" style="text;strokeColor=none;fillColor=none;spacingLeft=4;spacingRight=4;overflow=hidden;rotatable=0;points=[[0,0.5],[1,0.5]];portConstraint=eastwest;fontSize=12;whiteSpace=wrap;html=1;" vertex="1" parent="qw_QOssrDmkwzQ05NECk-1">
          <mxGeometry y="26" width="160" height="30" as="geometry" />
        </mxCell>
        <mxCell id="qw_QOssrDmkwzQ05NECk-4" value="log_tid TIMESTAMP" style="text;strokeColor=none;fillColor=none;spacingLeft=4;spacingRight=4;overflow=hidden;rotatable=0;points=[[0,0.5],[1,0.5]];portConstraint=eastwest;fontSize=12;whiteSpace=wrap;html=1;" vertex="1" parent="qw_QOssrDmkwzQ05NECk-1">
          <mxGeometry y="56" width="160" height="30" as="geometry" />
        </mxCell>
        <mxCell id="qw_QOssrDmkwzQ05NECk-26" value="kortleser_id INT (FK)" style="text;strokeColor=none;fillColor=none;spacingLeft=4;spacingRight=4;overflow=hidden;rotatable=0;points=[[0,0.5],[1,0.5]];portConstraint=eastwest;fontSize=12;whiteSpace=wrap;html=1;" vertex="1" parent="qw_QOssrDmkwzQ05NECk-1">
          <mxGeometry y="86" width="160" height="30" as="geometry" />
        </mxCell>
        <mxCell id="qw_QOssrDmkwzQ05NECk-27" value="kort_id INT (FK)" style="text;strokeColor=none;fillColor=none;spacingLeft=4;spacingRight=4;overflow=hidden;rotatable=0;points=[[0,0.5],[1,0.5]];portConstraint=eastwest;fontSize=12;whiteSpace=wrap;html=1;" vertex="1" parent="qw_QOssrDmkwzQ05NECk-1">
          <mxGeometry y="116" width="160" height="30" as="geometry" />
        </mxCell>
        <mxCell id="qw_QOssrDmkwzQ05NECk-5" value="tilgangrelasjon" style="swimlane;fontStyle=0;childLayout=stackLayout;horizontal=1;startSize=26;horizontalStack=0;resizeParent=1;resizeParentMax=0;resizeLast=0;collapsible=1;marginBottom=0;align=center;fontSize=14;rounded=0;" vertex="1" parent="1">
          <mxGeometry x="390" y="250" width="160" height="116" as="geometry" />
        </mxCell>
        <mxCell id="qw_QOssrDmkwzQ05NECk-6" value="tilgangrelasjon_id INT (PK)" style="text;strokeColor=none;fillColor=none;spacingLeft=4;spacingRight=4;overflow=hidden;rotatable=0;points=[[0,0.5],[1,0.5]];portConstraint=eastwest;fontSize=12;whiteSpace=wrap;html=1;" vertex="1" parent="qw_QOssrDmkwzQ05NECk-5">
          <mxGeometry y="26" width="160" height="30" as="geometry" />
        </mxCell>
        <mxCell id="qw_QOssrDmkwzQ05NECk-7" value="tilgang_id INT (FK)" style="text;strokeColor=none;fillColor=none;spacingLeft=4;spacingRight=4;overflow=hidden;rotatable=0;points=[[0,0.5],[1,0.5]];portConstraint=eastwest;fontSize=12;whiteSpace=wrap;html=1;" vertex="1" parent="qw_QOssrDmkwzQ05NECk-5">
          <mxGeometry y="56" width="160" height="30" as="geometry" />
        </mxCell>
        <mxCell id="qw_QOssrDmkwzQ05NECk-8" value="seksjon_id INT (FK)" style="text;strokeColor=none;fillColor=none;spacingLeft=4;spacingRight=4;overflow=hidden;rotatable=0;points=[[0,0.5],[1,0.5]];portConstraint=eastwest;fontSize=12;whiteSpace=wrap;html=1;" vertex="1" parent="qw_QOssrDmkwzQ05NECk-5">
          <mxGeometry y="86" width="160" height="30" as="geometry" />
        </mxCell>
        <mxCell id="qw_QOssrDmkwzQ05NECk-9" value="kortleser" style="swimlane;fontStyle=0;childLayout=stackLayout;horizontal=1;startSize=26;horizontalStack=0;resizeParent=1;resizeParentMax=0;resizeLast=0;collapsible=1;marginBottom=0;align=center;fontSize=14;" vertex="1" parent="1">
          <mxGeometry x="630" y="40" width="160" height="116" as="geometry" />
        </mxCell>
        <mxCell id="qw_QOssrDmkwzQ05NECk-10" value="kortleser_id INT (PK)" style="text;strokeColor=none;fillColor=none;spacingLeft=4;spacingRight=4;overflow=hidden;rotatable=0;points=[[0,0.5],[1,0.5]];portConstraint=eastwest;fontSize=12;whiteSpace=wrap;html=1;" vertex="1" parent="qw_QOssrDmkwzQ05NECk-9">
          <mxGeometry y="26" width="160" height="30" as="geometry" />
        </mxCell>
        <mxCell id="qw_QOssrDmkwzQ05NECk-11" value="seksjon_id INT&amp;nbsp;" style="text;strokeColor=none;fillColor=none;spacingLeft=4;spacingRight=4;overflow=hidden;rotatable=0;points=[[0,0.5],[1,0.5]];portConstraint=eastwest;fontSize=12;whiteSpace=wrap;html=1;" vertex="1" parent="qw_QOssrDmkwzQ05NECk-9">
          <mxGeometry y="56" width="160" height="30" as="geometry" />
        </mxCell>
        <mxCell id="qw_QOssrDmkwzQ05NECk-12" value="plass VARCHAR(100)" style="text;strokeColor=none;fillColor=none;spacingLeft=4;spacingRight=4;overflow=hidden;rotatable=0;points=[[0,0.5],[1,0.5]];portConstraint=eastwest;fontSize=12;whiteSpace=wrap;html=1;" vertex="1" parent="qw_QOssrDmkwzQ05NECk-9">
          <mxGeometry y="86" width="160" height="30" as="geometry" />
        </mxCell>
        <mxCell id="qw_QOssrDmkwzQ05NECk-14" value="" style="edgeStyle=entityRelationEdgeStyle;fontSize=12;html=1;endArrow=ERzeroToMany;startArrow=ERzeroToMany;rounded=0;exitX=-0.006;exitY=0.19;exitDx=0;exitDy=0;entryX=1.006;entryY=0.06;entryDx=0;entryDy=0;exitPerimeter=0;entryPerimeter=0;startFill=0;" edge="1" parent="1" source="qw_QOssrDmkwzQ05NECk-9" target="qw_QOssrDmkwzQ05NECk-5">
          <mxGeometry width="100" height="100" relative="1" as="geometry">
            <mxPoint x="370" y="440" as="sourcePoint" />
            <mxPoint x="610" y="530" as="targetPoint" />
          </mxGeometry>
        </mxCell>
        <mxCell id="qw_QOssrDmkwzQ05NECk-19" value="" style="edgeStyle=entityRelationEdgeStyle;fontSize=12;html=1;endArrow=ERzeroToMany;startArrow=ERmandOne;rounded=0;exitX=0;exitY=0;exitDx=0;exitDy=0;entryX=1.006;entryY=0.069;entryDx=0;entryDy=0;entryPerimeter=0;" edge="1" parent="1" source="qw_QOssrDmkwzQ05NECk-9" target="qw_QOssrDmkwzQ05NECk-1">
          <mxGeometry width="100" height="100" relative="1" as="geometry">
            <mxPoint x="540" y="250" as="sourcePoint" />
            <mxPoint x="481" y="443" as="targetPoint" />
          </mxGeometry>
        </mxCell>
        <mxCell id="qw_QOssrDmkwzQ05NECk-20" value="" style="edgeStyle=entityRelationEdgeStyle;fontSize=12;html=1;endArrow=ERzeroToMany;startArrow=ERmandOne;rounded=0;exitX=1;exitY=0;exitDx=0;exitDy=0;entryX=0.006;entryY=0.069;entryDx=0;entryDy=0;entryPerimeter=0;" edge="1" parent="1" source="5ztRzxqujjNMiUvxfKSf-1" target="qw_QOssrDmkwzQ05NECk-1">
          <mxGeometry width="100" height="100" relative="1" as="geometry">
            <mxPoint x="370" y="220" as="sourcePoint" />
            <mxPoint x="311" y="413" as="targetPoint" />
          </mxGeometry>
        </mxCell>
        <mxCell id="qw_QOssrDmkwzQ05NECk-13" value="" style="edgeStyle=entityRelationEdgeStyle;fontSize=12;html=1;endArrow=ERzeroToMany;endFill=1;startArrow=ERzeroToMany;rounded=0;entryX=-0.031;entryY=0.103;entryDx=0;entryDy=0;startFill=0;entryPerimeter=0;exitX=1.008;exitY=0.06;exitDx=0;exitDy=0;exitPerimeter=0;" edge="1" parent="1" source="5ztRzxqujjNMiUvxfKSf-1" target="qw_QOssrDmkwzQ05NECk-5">
          <mxGeometry width="100" height="100" relative="1" as="geometry">
            <mxPoint x="320" y="290" as="sourcePoint" />
            <mxPoint x="488.0799999999999" y="452.5160000000001" as="targetPoint" />
            <Array as="points">
              <mxPoint x="230" y="477.48" />
              <mxPoint x="230" y="407.48" />
            </Array>
          </mxGeometry>
        </mxCell>
      </root>
    </mxGraphModel>
  </diagram>
</mxfile>
